<?xml version="1.0" encoding="UTF-8" standalone="no"?>
<svg
   width="150"
   height="150"
   viewBox="0 0 150 150"
   version="1.1"
   id="SVGRoot"
   sodipodi:docname="golden_circle_only_transparent.svg"
   inkscape:version="1.1 (c4e8f9e, 2021-05-24)"
   xmlns:inkscape="http://www.inkscape.org/namespaces/inkscape"
   xmlns:sodipodi="http://sodipodi.sourceforge.net/DTD/sodipodi-0.dtd"
   xmlns="http://www.w3.org/2000/svg"
   xmlns:svg="http://www.w3.org/2000/svg"
   xmlns:rdf="http://www.w3.org/1999/02/22-rdf-syntax-ns#"
   xmlns:cc="http://creativecommons.org/ns#"
   xmlns:dc="http://purl.org/dc/elements/1.1/">
  <defs
     id="defs2078" />
  <sodipodi:namedview
     id="base"
     pagecolor="#ffffff"
     bordercolor="#666666"
     borderopacity="1.0"
     inkscape:pageopacity="0.0"
     inkscape:pageshadow="2"
     inkscape:zoom="3.4731885"
     inkscape:cx="30.951387"
     inkscape:cy="69.38869"
     inkscape:document-units="px"
     inkscape:current-layer="layer2"
     inkscape:document-rotation="0"
     showgrid="true"
     inkscape:window-width="1792"
     inkscape:window-height="942"
     inkscape:window-x="2017"
     inkscape:window-y="25"
     inkscape:window-maximized="0"
     inkscape:pagecheckerboard="0"
     width="150px">
    <inkscape:grid
       type="xygrid"
       id="grid2648" />
  </sodipodi:namedview>
  <metadata
     id="metadata2081">
    <rdf:RDF>
      <cc:Work
         rdf:about="">
        <dc:format>image/svg+xml</dc:format>
        <dc:type
           rdf:resource="http://purl.org/dc/dcmitype/StillImage" />
      </cc:Work>
    </rdf:RDF>
  </metadata>
  <g
     inkscape:groupmode="layer"
     id="layer2"
     inkscape:label="Golden circle why"
     style="display:inline"
     sodipodi:insensitive="true">
    <circle
       style="fill:none;stroke:#51bd7b;stroke-width:1.75748;stroke-miterlimit:4;stroke-dasharray:none;stroke-opacity:1"
       id="path1008"
       cx="64"
       cy="12.323146"
       r="71.81102" />
  </g>
  <g
     inkscape:groupmode="layer"
     id="layer3"
     inkscape:label="Golden circle how"
     sodipodi:insensitive="true">
    <circle
       style="fill:none;stroke:#51bd7b;stroke-width:1.75748;stroke-miterlimit:4;stroke-dasharray:none;stroke-opacity:1"
       id="path1414"
       cx="64"
       cy="11.732912"
       r="98.267715" />
  </g>
  <g
     inkscape:groupmode="layer"
     id="layer4"
     inkscape:label="Golden circle what"
     sodipodi:insensitive="true">
    <circle
       style="fill:none;stroke:#51bd7b;stroke-width:1.75748;stroke-miterlimit:4;stroke-dasharray:none;stroke-opacity:1"
       id="path1723"
       cx="64"
       cy="12.190693"
       r="124.72441" />
  </g>
  <g
     inkscape:groupmode="layer"
     id="layer5"
     inkscape:label="Text"
     sodipodi:insensitive="true">
    <g
       aria-label="WHY"
       id="text3351"
       style="font-weight:bold;font-size:16px;line-height:1.25;font-family:'Comic Sans MS';-inkscape-font-specification:'Comic Sans MS, Bold';fill:#51bd7b">
      <path
         d="m 60.441406,66.316246 q -0.132812,0.320313 -0.3125,0.789063 -0.132812,0.453125 -0.429687,1.34375 -0.445313,1.148437 -1.414063,3.34375 -0.992187,2.234375 -1.421875,3.335937 -0.320312,0.820313 -0.601562,1.3125 -0.367188,0.648438 -1.117188,0.648438 -0.445312,0 -0.804687,-0.242188 -0.421875,-0.28125 -0.453125,-0.742187 -0.359375,-0.898438 -0.453125,-1.46875 -0.34375,-1.671875 -0.953125,-5.023438 -0.507813,1.570313 -1.09375,2.820313 -0.875,1.875 -1.148438,2.945312 0.07031,0.171875 0.07031,0.367188 0,0.484375 -0.429688,0.789062 -0.375,0.257813 -0.828125,0.257813 -0.570312,0 -0.945312,-0.289063 -0.40625,-0.320312 -0.421875,-0.875 l -0.242188,-0.914062 q -0.257812,-1.21875 -0.84375,-3.640625 -0.515625,-1.851563 -1.726562,-5.273438 -0.07031,-0.195312 -0.07031,-0.390625 0,-0.46875 0.359375,-0.742187 0.320313,-0.25 0.773438,-0.25 0.59375,0 0.945312,0.5 0.195313,0.273437 0.445313,0.992187 0.765625,2.203125 1.726562,6.421875 0.625,-1.523437 1.273438,-3.59375 0.523437,-1.6875 0.851562,-2.398437 0.78125,-1.703125 1.59375,-1.703125 0.765625,0 1.117188,0.835937 0.171875,0.398438 0.335937,1.445313 0.04687,0.320312 0.203125,1.570312 0.164063,1.34375 0.984375,4.890625 0.828125,-1.9375 2.226563,-5.585937 0.08594,-0.21875 0.40625,-1.4375 0.226562,-0.875 0.570312,-1.382813 0.375,-0.546875 1,-0.546875 0.476563,0 0.789063,0.296875 0.3125,0.289063 0.3125,0.75 0,0.164063 -0.273438,0.84375 z"
         id="path13463" />
      <path
         d="m 72.761719,65.503746 q -0.15625,0.570313 -0.15625,0.992188 0,0.21875 -0.04687,0.679687 -0.03906,0.453125 -0.03906,0.671875 0,0.742188 -0.07813,2.203125 -0.07813,1.460938 -0.07813,2.203125 0,0.570313 0.08594,1.703125 0.08594,1.132813 0.08594,1.703125 0,0.429688 -0.304687,0.726563 -0.304688,0.296875 -0.757813,0.296875 -0.460937,0 -0.796875,-0.296875 -0.335937,-0.289063 -0.335937,-0.710938 0,-0.570312 -0.05469,-1.710937 -0.04687,-1.140625 -0.04687,-1.710938 0,-0.445312 0.01563,-0.789062 -1.226562,0.05469 -3.03125,0.382812 -1.5,0.273438 -3,0.554688 -0.01563,0.53125 -0.109375,1.773437 -0.07813,1.09375 -0.07813,1.789063 0,0.429687 -0.304687,0.726562 -0.304688,0.296875 -0.757813,0.296875 -0.453125,0 -0.757812,-0.296875 -0.304688,-0.296875 -0.304688,-0.726562 0,-0.789063 0.132813,-2.359375 0.140625,-1.570313 0.140625,-2.359375 0,-1 0.04687,-3.007813 0.04687,-2.015625 0.04687,-3.015625 0,-0.429687 0.304687,-0.726562 0.304688,-0.296875 0.757813,-0.296875 0.453125,0 0.757812,0.296875 0.304688,0.296875 0.304688,0.726562 0,0.59375 -0.04687,1.789063 -0.03906,1.1875 -0.03906,1.78125 0,0.195312 -0.05469,0.75 -0.04687,0.515625 -0.03906,0.789062 l 3,-0.5625 q 1.757813,-0.3125 3.03125,-0.359375 0.03125,-0.523437 0.101563,-2.8125 0.01563,-0.601562 0.367187,-1.382812 0.4375,-0.960938 0.992188,-0.960938 0.414062,0 0.734375,0.273438 0.34375,0.296875 0.34375,0.742187 0,0.117188 -0.03125,0.234375 z"
         id="path13465" />
      <path
         d="m 82.746094,66.699059 q -0.398438,0.820312 -1.601563,3.546875 -1,2.28125 -1.703125,3.578125 -1.21875,2.25 -1.304687,2.382812 -0.460938,0.679688 -1.0625,0.679688 -0.429688,0 -0.757813,-0.28125 -0.359375,-0.3125 -0.359375,-0.773438 0,-0.382812 1.632813,-3.21875 -0.601563,-0.867187 -1.726563,-2.632812 -0.84375,-1.296875 -2.476562,-3.914063 -0.15625,-0.265625 -0.15625,-0.554687 0,-0.453125 0.351562,-0.765625 0.328125,-0.289063 0.765625,-0.289063 0.515625,0 0.9375,0.523438 l 0.585938,0.9375 q 0.05469,0.09375 1.34375,2.28125 0.8125,1.398437 1.4375,2.210937 0.59375,-1.195312 1.710937,-3.617187 0.234375,-0.539063 0.703125,-1.632813 0.296875,-0.703125 1.015625,-0.703125 0.429688,0 0.757813,0.28125 0.359375,0.304688 0.359375,0.765625 0,0.265625 -0.453125,1.195313 z"
         id="path13467" />
    </g>
    <g
       aria-label="HOW"
       id="text17208"
       style="font-weight:bold;font-size:16px;line-height:1.25;font-family:'Comic Sans MS';-inkscape-font-specification:'Comic Sans MS, Bold';fill:#51bd7b">
      <path
         d="m 54.605469,90.501541 q -0.15625,0.570313 -0.15625,0.992188 0,0.21875 -0.04687,0.679687 -0.03906,0.453125 -0.03906,0.671875 0,0.742188 -0.07813,2.203125 -0.07813,1.460938 -0.07813,2.203125 0,0.570313 0.08594,1.703125 0.08594,1.132814 0.08594,1.703124 0,0.42969 -0.304687,0.72656 -0.304688,0.29688 -0.757813,0.29688 -0.460937,0 -0.796875,-0.29688 -0.335937,-0.28906 -0.335937,-0.71093 0,-0.57032 -0.05469,-1.710941 -0.04687,-1.140625 -0.04687,-1.710938 0,-0.445312 0.01563,-0.789062 -1.226562,0.05469 -3.03125,0.382812 -1.5,0.273438 -3,0.554688 -0.01563,0.53125 -0.109375,1.773437 -0.07813,1.093754 -0.07813,1.789064 0,0.42969 -0.304687,0.72656 -0.304688,0.29688 -0.757813,0.29688 -0.453125,0 -0.757812,-0.29688 -0.304688,-0.29687 -0.304688,-0.72656 0,-0.78906 0.132813,-2.359376 0.140625,-1.570313 0.140625,-2.359375 0,-1 0.04687,-3.007813 0.04687,-2.015625 0.04687,-3.015625 0,-0.429687 0.304687,-0.726562 0.304688,-0.296875 0.757813,-0.296875 0.453125,0 0.757812,0.296875 0.304688,0.296875 0.304688,0.726562 0,0.59375 -0.04687,1.789063 -0.03906,1.1875 -0.03906,1.78125 0,0.195312 -0.05469,0.75 -0.04687,0.515625 -0.03906,0.789062 l 3,-0.5625 q 1.757813,-0.3125 3.03125,-0.359375 0.03125,-0.523437 0.101563,-2.8125 0.01563,-0.601562 0.367187,-1.382812 0.4375,-0.960938 0.992188,-0.960938 0.414062,0 0.734375,0.273438 0.34375,0.296875 0.34375,0.742187 0,0.117188 -0.03125,0.234375 z"
         id="path19072" />
      <path
         d="m 61.300781,101.81404 q -2.3125,0 -3.9375,-1.32812 -1.734375,-1.421879 -1.734375,-3.679691 0,-2.65625 1.664063,-4.84375 1.867187,-2.460938 4.703125,-2.460938 2.726562,0 4.085937,1.25 1.359375,1.25 1.359375,3.757813 0,2.65625 -1.53125,4.8125 -1.765625,2.492186 -4.609375,2.492186 z m 0.695313,-10.195311 q -1.742188,0 -2.984375,1.6875 -1.164063,1.578125 -1.164063,3.5 0,1.296875 1.007813,2.109375 0.96875,0.78125 2.445312,0.78125 1.71875,0 2.867188,-1.6875 1.054687,-1.539063 1.054687,-3.5 0,-1.640625 -0.734375,-2.28125 -0.703125,-0.609375 -2.492187,-0.609375 z"
         id="path19074" />
      <path
         d="m 83.972656,91.314041 q -0.132812,0.320313 -0.3125,0.789063 -0.132812,0.453125 -0.429687,1.34375 -0.445313,1.148437 -1.414063,3.34375 -0.992187,2.234375 -1.421875,3.335936 -0.320312,0.82031 -0.601562,1.3125 -0.367188,0.64844 -1.117188,0.64844 -0.445312,0 -0.804687,-0.24219 -0.421875,-0.28125 -0.453125,-0.74219 -0.359375,-0.89843 -0.453125,-1.468746 -0.34375,-1.671875 -0.953125,-5.023438 -0.507813,1.570313 -1.09375,2.820313 -0.875,1.875 -1.148438,2.945311 0.07031,0.17188 0.07031,0.36719 0,0.48437 -0.429688,0.78906 -0.375,0.25781 -0.828125,0.25781 -0.570312,0 -0.945312,-0.28906 -0.40625,-0.32031 -0.421875,-0.875 l -0.242188,-0.914061 q -0.257812,-1.21875 -0.84375,-3.640625 -0.515625,-1.851563 -1.726562,-5.273438 -0.07031,-0.195312 -0.07031,-0.390625 0,-0.46875 0.359375,-0.742187 0.320313,-0.25 0.773438,-0.25 0.59375,0 0.945312,0.5 0.195313,0.273437 0.445313,0.992187 0.765625,2.203125 1.726562,6.421875 0.625,-1.523437 1.273438,-3.59375 0.523437,-1.6875 0.851562,-2.398437 0.78125,-1.703125 1.59375,-1.703125 0.765625,0 1.117188,0.835937 0.171875,0.398438 0.335937,1.445313 0.04687,0.320312 0.203125,1.570312 0.164063,1.34375 0.984375,4.890625 0.828125,-1.9375 2.226563,-5.585937 0.08594,-0.21875 0.40625,-1.4375 0.226562,-0.875 0.570312,-1.382813 0.375,-0.546875 1,-0.546875 0.476563,0 0.789063,0.296875 0.3125,0.289063 0.3125,0.75 0,0.164063 -0.273438,0.84375 z"
         id="path19076" />
    </g>
    <g
       aria-label="WHAT"
       id="text21123"
       style="font-weight:bold;font-size:16px;line-height:1.25;font-family:'Comic Sans MS';-inkscape-font-specification:'Comic Sans MS, Bold';fill:#51bd7b">
      <path
         d="m 53.910156,116.31561 q -0.132812,0.32032 -0.3125,0.78907 -0.132812,0.45312 -0.429687,1.34375 -0.445313,1.14843 -1.414063,3.34375 -0.992187,2.23437 -1.421875,3.33593 -0.320312,0.82032 -0.601562,1.3125 -0.367188,0.64844 -1.117188,0.64844 -0.445312,0 -0.804687,-0.24219 -0.421875,-0.28125 -0.453125,-0.74218 -0.359375,-0.89844 -0.453125,-1.46875 -0.34375,-1.67188 -0.953125,-5.02344 -0.507813,1.57031 -1.09375,2.82031 -0.875,1.875 -1.148438,2.94531 0.07031,0.17188 0.07031,0.36719 0,0.48438 -0.429688,0.78906 -0.375,0.25782 -0.828125,0.25782 -0.570312,0 -0.945312,-0.28907 -0.40625,-0.32031 -0.421875,-0.875 l -0.242188,-0.91406 q -0.257812,-1.21875 -0.84375,-3.64062 -0.515625,-1.85157 -1.726562,-5.27344 -0.07031,-0.19531 -0.07031,-0.39063 0,-0.46875 0.359375,-0.74218 0.320313,-0.25 0.773438,-0.25 0.59375,0 0.945312,0.5 0.195313,0.27343 0.445313,0.99218 0.765625,2.20313 1.726562,6.42188 0.625,-1.52344 1.273438,-3.59375 0.523437,-1.6875 0.851562,-2.39844 0.78125,-1.70312 1.59375,-1.70312 0.765625,0 1.117188,0.83593 0.171875,0.39844 0.335937,1.44532 0.04687,0.32031 0.203125,1.57031 0.164063,1.34375 0.984375,4.89062 0.828125,-1.9375 2.226563,-5.58593 0.08594,-0.21875 0.40625,-1.4375 0.226562,-0.875 0.570312,-1.38282 0.375,-0.54687 1,-0.54687 0.476563,0 0.789063,0.29687 0.3125,0.28907 0.3125,0.75 0,0.16407 -0.273438,0.84375 z"
         id="path23032" />
      <path
         d="m 66.230469,115.50311 q -0.15625,0.57032 -0.15625,0.99219 0,0.21875 -0.04687,0.67969 -0.03906,0.45312 -0.03906,0.67187 0,0.74219 -0.07813,2.20313 -0.07813,1.46094 -0.07813,2.20312 0,0.57032 0.08594,1.70313 0.08594,1.13281 0.08594,1.70312 0,0.42969 -0.304687,0.72657 -0.304688,0.29687 -0.757813,0.29687 -0.460937,0 -0.796875,-0.29687 -0.335937,-0.28907 -0.335937,-0.71094 0,-0.57031 -0.05469,-1.71094 -0.04687,-1.14062 -0.04687,-1.71094 0,-0.44531 0.01563,-0.78906 -1.226562,0.0547 -3.03125,0.38281 -1.5,0.27344 -3,0.55469 -0.01563,0.53125 -0.109375,1.77344 -0.07813,1.09375 -0.07813,1.78906 0,0.42969 -0.304687,0.72656 -0.304688,0.29688 -0.757813,0.29688 -0.453125,0 -0.757812,-0.29688 -0.304688,-0.29687 -0.304688,-0.72656 0,-0.78906 0.132813,-2.35937 0.140625,-1.57032 0.140625,-2.35938 0,-1 0.04687,-3.00781 0.04687,-2.01563 0.04687,-3.01563 0,-0.42968 0.304687,-0.72656 0.304688,-0.29687 0.757813,-0.29687 0.453125,0 0.757812,0.29687 0.304688,0.29688 0.304688,0.72656 0,0.59375 -0.04687,1.78907 -0.03906,1.1875 -0.03906,1.78125 0,0.19531 -0.05469,0.75 -0.04687,0.51562 -0.03906,0.78906 l 3,-0.5625 q 1.757813,-0.3125 3.03125,-0.35938 0.03125,-0.52343 0.101563,-2.8125 0.01563,-0.60156 0.367187,-1.38281 0.4375,-0.96094 0.992188,-0.96094 0.414062,0 0.734375,0.27344 0.34375,0.29688 0.34375,0.74219 0,0.11719 -0.03125,0.23437 z"
         id="path23034" />
      <path
         d="m 76.550781,126.57343 q -0.617187,-0.0234 -1.242187,-1.45313 -0.414063,-0.92187 -0.710938,-2.125 -0.578125,0.0859 -1.890625,0.17188 -1.234375,0.0859 -1.890625,0.20312 -0.359375,0.85938 -1.25,2.58594 -0.34375,0.5625 -0.953125,0.5625 -0.429687,0 -0.773437,-0.28906 -0.34375,-0.29688 -0.34375,-0.75 0,-0.39844 1.140625,-2.70313 -0.109375,-0.24219 -0.09375,-0.45312 0.03125,-0.375 0.757812,-0.58594 1.109375,-1.92188 2.46875,-3.98438 1.953125,-2.96093 2.40625,-2.96093 0.859375,0 1.148438,1.03906 0.15625,0.83594 0.492187,2.50781 0.476563,2.25 1.164063,5.14844 0.05469,0.21875 0.398437,1.03125 0.28125,0.67187 0.28125,1.00781 0,0.45313 -0.34375,0.75781 -0.335937,0.30469 -0.765625,0.28907 z m -2.914062,-8.01563 q -0.609375,1.04688 -1.679688,2.85156 0.351563,-0.0781 1.09375,-0.125 0.875,-0.0547 1.101563,-0.0859 -0.1875,-1.01563 -0.515625,-2.64063 z"
         id="path23036" />
      <path
         d="m 88.628906,116.97186 q -0.609375,0 -1.898437,-0.0859 -1.242188,-0.0859 -1.898438,-0.0781 0.03125,0.89063 0.210938,3.17188 0.164062,2.01562 0.164062,3.1875 0,0.26562 0.05469,0.78906 0.05469,0.52344 0.05469,0.78906 0,0.58594 -0.25,1.05469 -0.320312,0.60156 -0.914062,0.60156 -0.429688,0 -0.757813,-0.27344 -0.367187,-0.30468 -0.367187,-0.76562 0,-0.10938 0.03906,-0.32813 0.03906,-0.22656 0.03906,-0.34375 0,-0.35937 -0.05469,-1.08593 -0.04687,-0.72657 -0.04687,-1.09375 0,-1.04688 -0.164062,-2.83594 -0.1875,-2.05469 -0.21875,-2.83594 h -0.40625 q -1.742188,0 -2.765625,-0.25 -0.867188,-0.21094 -0.867188,-1.02344 0,-0.39843 0.28125,-0.71875 0.328125,-0.38281 0.859375,-0.34375 0.273438,0.0156 1.242188,0.13282 0.773437,0.0859 1.25,0.0859 0.476562,0 1.421875,-0.0156 0.953125,-0.0156 1.429687,-0.0156 0.59375,0 1.78125,0.0859 1.1875,0.0781 1.78125,0.0781 0.46875,0 0.78125,0.30468 0.320313,0.30469 0.320313,0.75 0,0.44532 -0.320313,0.75782 -0.3125,0.30468 -0.78125,0.30468 z"
         id="path23038" />
    </g>
  </g>
  <g
     inkscape:groupmode="layer"
     id="layer6"
     inkscape:label="Arrow">
    <g
       transform="matrix(-0.02895981,-0.07276839,0.07276839,-0.02895981,100.52643,128.42561)"
       id="Ebene_1">
      <polygon
         points="902.25049,222.98633 233.17773,222.98633 233.17773,364.71875 0,182.35938 233.17773,0 233.17773,141.73242 902.25049,141.73242 "
         id="path2050" />
      <path
         style="fill:#51bd7b;fill-opacity:1;stroke:#bd5194;stroke-width:0.506014;stroke-miterlimit:4;stroke-dasharray:none;stroke-opacity:1"
         d="m 104.01927,117.22748 c -5.328772,-3.11219 -9.599792,-5.73745 -9.491154,-5.83391 0.108638,-0.0964 2.301746,-1.0034 4.873575,-2.01544 2.571829,-1.01203 4.677239,-1.9959 4.678699,-2.18639 0.001,-0.19048 -2.3138,-6.15042 -5.145005,-13.244314 C 87.447684,65.163772 85.047773,59.021253 85.195915,58.781555 c 0.271981,-0.440074 5.109112,-2.134746 5.357356,-1.87693 0.131055,0.136109 4.481806,10.936496 9.668339,24.00086 5.18652,13.064364 9.52855,23.867495 9.64894,24.006955 0.12039,0.13946 2.38122,-0.61158 5.02407,-1.66898 2.64284,-1.0574 4.86067,-1.86705 4.9285,-1.79923 0.0678,0.0678 -1.28034,4.91998 -2.99593,10.78255 l -3.11924,10.65923 z"
         id="path23174"
         transform="matrix(-4.7212649,11.863298,-11.863298,-4.7212649,1998.1631,-586.24363)" />
      <path
         style="fill:#51bd7b;fill-opacity:1;stroke:#bd5194;stroke-width:0.506014;stroke-miterlimit:4;stroke-dasharray:none;stroke-opacity:1"
         d="m 110.99311,120.85149 c -10.37735,-6.09402 -15.533309,-9.26391 -15.341167,-9.43175 0.123957,-0.10828 1.130788,-0.55189 2.237404,-0.98581 3.682713,-1.44402 6.481603,-2.82767 6.481603,-3.2042 0,-0.59718 -1.22634,-3.77604 -9.18423,-23.806842 -8.005661,-20.151052 -9.643971,-24.387708 -9.485808,-24.530215 0.403897,-0.363915 4.416975,-1.56886 4.603587,-1.382248 0.129691,0.129692 4.445969,10.783497 9.591727,23.675122 5.145754,12.891627 9.531284,23.614683 9.745624,23.829013 0.32765,0.32765 0.89029,0.20965 3.53374,-0.74111 1.72922,-0.62194 3.83973,-1.40929 4.69001,-1.74967 1.04891,-0.41988 1.502,-0.50013 1.40921,-0.2496 -0.0752,0.20309 -1.40052,4.77443 -2.94511,10.15853 -1.54458,5.3841 -2.82654,9.80428 -2.8488,9.82262 -0.0223,0.0183 -1.14176,-0.61339 -2.48779,-1.40384 z"
         id="path23287"
         transform="matrix(-4.7212649,11.863298,-11.863298,-4.7212649,1998.1631,-586.24363)" />
      <path
         style="fill:#bd5194;fill-opacity:1;stroke:#bd5194;stroke-width:0.506014;stroke-miterlimit:4;stroke-dasharray:none;stroke-opacity:1"
         d="m 106.36807,117.64798 c -8.642408,-5.17643 -9.856799,-5.96753 -9.571805,-6.23541 0.128003,-0.12033 1.398808,-0.69495 2.824012,-1.27693 3.501443,-1.42983 5.038593,-2.35175 5.038593,-3.02194 0,-0.7498 -0.70562,-2.60293 -8.499408,-22.321297 -7.487015,-18.942233 -9.927459,-25.215121 -9.927459,-25.517421 0,-0.333242 3.55279,-1.420504 3.807946,-1.165347 0.131223,0.131223 3.917012,9.373904 8.412864,20.539291 10.109827,25.107614 10.754937,26.645944 11.254617,26.837694 0.4876,0.1871 2.45525,-0.37984 5.95957,-1.71714 1.43968,-0.5494 2.70431,-0.96273 2.81031,-0.91852 0.16095,0.0671 -5.01686,18.61413 -5.24826,18.79935 -0.0421,0.0337 -3.12954,-1.76736 -6.86098,-4.00233 z"
         id="path23326"
         transform="matrix(-4.7212649,11.863298,-11.863298,-4.7212649,1998.1631,-586.24363)" />
    </g>
  </g>
</svg>
