<?xml version="1.0" encoding="UTF-8" standalone="no"?>
<svg
   width="400.0px"
   height="400.0px"
   viewBox="0 0 400.0 400.0"
   version="1.1"
   id="SVGRoot"
   sodipodi:docname="d20_nerd_dice_seafoam_alt.svg"
   inkscape:version="1.1 (c4e8f9e, 2021-05-24)"
   xmlns:inkscape="http://www.inkscape.org/namespaces/inkscape"
   xmlns:sodipodi="http://sodipodi.sourceforge.net/DTD/sodipodi-0.dtd"
   xmlns="http://www.w3.org/2000/svg"
   xmlns:svg="http://www.w3.org/2000/svg"
   xmlns:rdf="http://www.w3.org/1999/02/22-rdf-syntax-ns#"
   xmlns:cc="http://creativecommons.org/ns#"
   xmlns:dc="http://purl.org/dc/elements/1.1/">
  <defs
     id="defs858" />
  <sodipodi:namedview
     id="base"
     pagecolor="#ffffff"
     bordercolor="#666666"
     borderopacity="1.0"
     inkscape:pageopacity="0.0"
     inkscape:pageshadow="2"
     inkscape:zoom="1"
     inkscape:cx="143.5"
     inkscape:cy="194.5"
     inkscape:document-units="px"
     inkscape:current-layer="layer4"
     inkscape:document-rotation="0"
     showgrid="true"
     inkscape:window-width="1252"
     inkscape:window-height="943"
     inkscape:window-x="2071"
     inkscape:window-y="25"
     inkscape:window-maximized="0"
     inkscape:pagecheckerboard="0">
    <inkscape:grid
       type="xygrid"
       id="grid1428" />
  </sodipodi:namedview>
  <metadata
     id="metadata861">
    <rdf:RDF>
      <cc:Work
         rdf:about="">
        <dc:format>image/svg+xml</dc:format>
        <dc:type
           rdf:resource="http://purl.org/dc/dcmitype/StillImage" />
        <dc:title />
      </cc:Work>
    </rdf:RDF>
  </metadata>
  <g
     inkscape:groupmode="layer"
     id="layer3"
     inkscape:label="Triangles"
     style="display:inline"
     sodipodi:insensitive="true">
    <path
       sodipodi:type="star"
       style="opacity:0.999;fill:#add9be;fill-opacity:1;stroke:#add9be;stroke-width:1.00157;stroke-opacity:1"
       id="path1622"
       sodipodi:sides="3"
       sodipodi:cx="200"
       sodipodi:cy="194.99957"
       sodipodi:r1="130"
       sodipodi:r2="45"
       sodipodi:arg1="-1.5707963"
       sodipodi:arg2="-0.52359881"
       inkscape:flatsided="true"
       inkscape:rounded="0"
       inkscape:randomized="0"
       d="M 200,64.999573 312.5833,259.99958 87.416696,259.99957 Z"
       inkscape:transform-center-y="-22.5" />
    <g
       id="g1657"
       transform="translate(-0.49479)"
       style="fill:#add9be;fill-opacity:1;stroke:#add9be;stroke-opacity:1">
      <path
         style="display:inline;fill:#add9be;fill-opacity:1;stroke:#add9be;stroke-width:1.01926px;stroke-linecap:butt;stroke-linejoin:miter;stroke-opacity:1"
         d="M 197.98995,61.075575 V 5.0162641 L 40.00463,91.653381 Z"
         id="path1632" />
      <path
         style="display:inline;fill:#add9be;fill-opacity:1;stroke:#add9be;stroke-width:1.01926px;stroke-linecap:butt;stroke-linejoin:miter;stroke-opacity:1"
         d="M 202.99963,61.076016 V 5.016705 l 157.98532,86.637117 z"
         id="path1634" />
    </g>
    <g
       id="g1661"
       transform="translate(-0.187635)"
       style="fill:#add9be;fill-opacity:1;stroke:#add9be;stroke-opacity:1">
      <path
         style="display:inline;fill:#add9be;fill-opacity:1;stroke:#add9be;stroke-width:1px;stroke-linecap:butt;stroke-linejoin:miter;stroke-opacity:1"
         d="M 195,65.000356 85,255.00036 45,95.000356 Z"
         id="path1624" />
      <path
         style="display:inline;fill:#add9be;fill-opacity:1;stroke:#add9be;stroke-width:1px;stroke-linecap:butt;stroke-linejoin:miter;stroke-opacity:1"
         d="m 205.37527,65.000356 110,190.000004 40,-160.000004 z"
         id="path1626" />
    </g>
    <g
       id="g1665"
       style="fill:#add9be;fill-opacity:1;stroke:#add9be;stroke-opacity:1">
      <path
         style="display:inline;fill:#add9be;fill-opacity:1;stroke:#add9be;stroke-width:1px;stroke-linecap:butt;stroke-linejoin:miter;stroke-opacity:1"
         d="m 40,94.9998 40,165 -45,10 z"
         id="path1628" />
      <path
         style="display:inline;fill:#add9be;fill-opacity:1;stroke:#add9be;stroke-width:1px;stroke-linecap:butt;stroke-linejoin:miter;stroke-opacity:1"
         d="m 360,94.9998 -40,165 45,10 z"
         id="path1630" />
    </g>
    <path
       sodipodi:type="star"
       style="display:inline;opacity:0.999;fill:#add9be;fill-opacity:1;stroke:#add9be;stroke-width:1.00157;stroke-opacity:1"
       id="path1636"
       sodipodi:sides="3"
       sodipodi:cx="200"
       sodipodi:cy="326.99979"
       sodipodi:r1="125"
       sodipodi:r2="40.311291"
       sodipodi:arg1="1.5707963"
       sodipodi:arg2="2.6179939"
       inkscape:flatsided="true"
       inkscape:rounded="0"
       inkscape:randomized="0"
       d="m 200,451.99979 -108.253177,-187.5 216.506347,-1e-5 z"
       inkscape:transform-center-x="-0.17979727"
       inkscape:transform-center-y="12.565869"
       transform="matrix(1.0016823,0,0,0.62829348,-0.33645661,98.214508)" />
    <g
       id="g1669"
       transform="translate(-0.05529)"
       style="fill:#add9be;fill-opacity:1;stroke:#add9be;stroke-opacity:1">
      <path
         style="display:inline;fill:#add9be;fill-opacity:1;stroke:#add9be;stroke-width:1px;stroke-linecap:butt;stroke-linejoin:miter;stroke-opacity:1"
         d="M 85,265 195,385 35,275 Z"
         id="path1642" />
      <path
         style="display:inline;fill:#add9be;fill-opacity:1;stroke:#add9be;stroke-width:1px;stroke-linecap:butt;stroke-linejoin:miter;stroke-opacity:1"
         d="m 315.11058,264.99954 -110,120 160,-110 z"
         id="path1644" />
    </g>
  </g>
  <g
     inkscape:groupmode="layer"
     id="layer4"
     inkscape:label="Text"
     style="display:inline">
    <g
       aria-label="20"
       id="text1674"
       style="font-weight:bold;font-size:74.6667px;line-height:1.25;font-family:Tahoma;-inkscape-font-specification:'Tahoma, Bold';fill:#00129e">
      <path
         d="m 196.51823,227.14325 h -39.88544 v -8.85938 q 5.06771,-4.01042 9.07813,-7.58334 4.04688,-3.57292 7.10938,-6.78125 3.97396,-4.19271 5.76042,-7.36459 1.78646,-3.17187 1.78646,-6.52604 0,-3.79167 -2.26042,-5.79688 -2.26042,-2.04167 -6.3073,-2.04167 -2.07812,0 -3.9375,0.51042 -1.82292,0.51042 -3.71875,1.3125 -1.85938,0.83854 -3.17188,1.71354 -1.3125,0.875 -1.96875,1.3125 h -1.05729 V 175.1901 q 2.29688,-1.09375 7.1823,-2.22396 4.88541,-1.16667 9.40625,-1.16667 9.66146,0 14.6198,4.30209 4.99479,4.30208 4.99479,12.10417 0,4.8125 -2.26042,9.44271 -2.26041,4.59376 -7.51042,9.88022 -3.28125,3.24479 -6.38021,5.79687 -3.09896,2.51563 -4.48437,3.57292 h 23.00522 z"
         id="path4759" />
      <path
         d="m 243.36721,199.98178 q 0,7.03646 -1.13021,12.32292 -1.13021,5.28646 -3.60938,8.82292 -2.47917,3.53646 -6.45313,5.35938 -3.97396,1.78646 -9.73438,1.78646 -5.72396,0 -9.69792,-1.78646 -3.97396,-1.82292 -6.48958,-5.4323 -2.47917,-3.57291 -3.60938,-8.78646 -1.13021,-5.25 -1.13021,-12.25 0,-7.21876 1.09375,-12.32293 1.13021,-5.10417 3.71875,-8.78646 2.55209,-3.60938 6.56251,-5.35938 4.01041,-1.78646 9.55208,-1.78646 5.8698,0 9.77084,1.85938 3.9375,1.82292 6.45313,5.46875 2.47917,3.57292 3.57292,8.82292 1.13021,5.25001 1.13021,12.06772 z m -13.67188,0 q 0,-10.06251 -1.67709,-14.10938 -1.64062,-4.08334 -5.57813,-4.08334 -3.90104,0 -5.57812,4.08334 -1.67709,4.04687 -1.67709,14.18229 0,9.91668 1.67709,14.07293 1.67708,4.11979 5.57812,4.11979 3.90105,0 5.57813,-4.11979 1.67709,-4.15625 1.67709,-14.14584 z"
         id="path4761" />
    </g>
    <text
       xml:space="preserve"
       style="font-size:40px;line-height:1.25;font-family:Avenir;-inkscape-font-specification:Avenir"
       x="70"
       y="110"
       id="text1678"><tspan
         sodipodi:role="line"
         id="tspan1676"
         x="70"
         y="110" /></text>
    <g
       aria-label="12"
       transform="matrix(1.7424167,0.2644617,1.0059847,0.72660256,0,0)"
       id="text1694"
       style="font-weight:bold;font-size:45.0939px;line-height:1.25;font-family:Tahoma;-inkscape-font-specification:'Tahoma, Bold';fill:#00129e;stroke-width:0.603937"
       inkscape:transform-center-x="4.0318962"
       inkscape:transform-center-y="9.6899815e-06">
      <path
         d="M 130.91044,48.148232 H 109.24423 V 42.42342 h 6.91381 V 25.094856 h -6.91381 V 19.74436 q 1.51928,0 3.01654,-0.198167 1.49725,-0.198166 2.40001,-0.638536 1.05689,-0.528445 1.62937,-1.409185 0.5945,-0.902759 0.68258,-2.223869 h 7.17803 V 42.42342 h 6.75968 z"
         id="path4671" />
      <path
         d="m 161.07579,48.148232 h -24.08824 v -5.350497 q 3.06057,-2.422036 5.48261,-4.579849 2.44405,-2.157814 4.2936,-4.095442 2.40002,-2.532128 3.47893,-4.447738 1.07891,-1.91561 1.07891,-3.941313 0,-2.289924 -1.36515,-3.500942 -1.36515,-1.233036 -3.8092,-1.233036 -1.25506,0 -2.378,0.308259 -1.10093,0.308259 -2.24589,0.792666 -1.12294,0.506425 -1.91561,1.03487 -0.79267,0.528444 -1.189,0.792666 h -0.63854 v -7.156014 q 1.38717,-0.660556 4.33765,-1.343129 2.95048,-0.704592 5.68077,-0.704592 5.83491,0 8.82943,2.598183 3.01653,2.598184 3.01653,7.310144 0,2.906443 -1.36515,5.702793 -1.36514,2.774331 -4.53581,5.967015 -1.98166,1.959647 -3.85324,3.500942 -1.87157,1.519277 -2.70827,2.157814 h 13.89367 z"
         id="path4673" />
    </g>
    <g
       aria-label="10"
       transform="matrix(1.746614,-0.26382617,-1.008408,0.72485647,0,0)"
       id="text1698"
       style="font-weight:bold;font-size:44.6421px;line-height:1.25;font-family:Tahoma;-inkscape-font-specification:'Tahoma, Bold';fill:#00129e;stroke-width:0.597884">
      <path
         d="m 155.38542,152.80638 h -21.44913 v -5.66745 h 6.84454 v -17.15495 h -6.84454 v -5.29689 q 1.50406,0 2.98631,-0.19618 1.48226,-0.19618 2.37597,-0.63214 1.0463,-0.52315 1.61305,-1.39507 0.58854,-0.89371 0.67573,-2.20158 h 7.10612 v 26.87681 h 6.69195 z"
         id="path4648" />
      <path
         d="m 184.83439,136.56694 q 0,4.207 -0.67574,7.3677 -0.67573,3.16069 -2.15799,5.27509 -1.48226,2.11439 -3.85823,3.20429 -2.37597,1.0681 -5.82004,1.0681 -3.42227,0 -5.79824,-1.0681 -2.37597,-1.0899 -3.88002,-3.24789 -1.48226,-2.13619 -2.158,-5.25329 -0.67573,-3.1389 -0.67573,-7.3241 0,-4.31598 0.65394,-7.36769 0.67573,-3.0517 2.22338,-5.25329 1.52586,-2.15799 3.92362,-3.20429 2.39777,-1.0681 5.71105,-1.0681 3.50947,0 5.84184,1.11169 2.35417,1.0899 3.85823,3.26969 1.48226,2.13619 2.13619,5.27509 0.67574,3.1389 0.67574,7.2151 z m -8.17421,0 q 0,-6.01622 -1.00271,-8.43578 -0.9809,-2.44137 -3.33508,-2.44137 -2.33237,0 -3.33507,2.44137 -1.00271,2.41956 -1.00271,8.47938 0,5.92903 1.00271,8.41399 1.0027,2.46316 3.33507,2.46316 2.33238,0 3.33508,-2.46316 1.00271,-2.48496 1.00271,-8.45759 z"
         id="path4650" />
    </g>
    <g
       aria-label="14"
       transform="scale(-1)"
       id="text1706"
       style="font-weight:bold;font-size:70.9334px;line-height:1.25;font-family:Tahoma;-inkscape-font-specification:'Tahoma, Bold';fill:#00129e;stroke-width:0.95">
      <path
         d="m -206.97904,-281.46478 h -34.08129 V -290.47 h 10.87553 v -27.2581 h -10.87553 v -8.41641 q 2.38985,0 4.74506,-0.31172 2.35521,-0.31172 3.77526,-1.00443 1.66251,-0.83125 2.56303,-2.21667 0.93515,-1.42005 1.0737,-3.49818 h 11.29115 V -290.47 h 10.63309 z"
         id="path4828" />
      <path
         d="m -158.93967,-293.48328 h -6.96173 v 12.15704 h -12.5034 v -12.15704 h -22.68622 v -9.62866 l 22.2706,-29.92503 h 12.91902 v 30.27139 h 6.96173 z m -19.46513,-9.2823 v -17.56018 l -13.05756,17.56018 z"
         id="path4830" />
    </g>
    <g
       aria-label="18"
       transform="matrix(-0.12833578,1.7580336,-0.47895565,-1.2309884,0,0)"
       id="text1718"
       style="font-weight:bold;font-size:37.1271px;line-height:1.25;font-family:Tahoma;-inkscape-font-specification:'Tahoma, Bold';fill:#00129e;stroke-width:0.497237">
      <path
         d="m -334.41041,-629.55933 h -17.83841 v -4.7134 h 5.69234 v -14.2671 h -5.69234 v -4.40522 q 1.25086,0 2.4836,-0.16316 1.23273,-0.16315 1.976,-0.52572 0.87017,-0.43508 1.34151,-1.16022 0.48946,-0.74327 0.56198,-1.83098 h 5.90988 v 22.3524 h 5.56544 z"
         id="path4782" />
      <path
         d="m -309.64692,-637.08264 q 0,1.74033 -0.72514,3.245 -0.70701,1.48653 -2.08478,2.57424 -1.37776,1.08771 -3.37189,1.70407 -1.976,0.61637 -4.53212,0.61637 -2.71927,0 -4.76778,-0.61637 -2.04852,-0.63449 -3.35377,-1.70407 -1.28712,-1.06958 -1.90349,-2.51986 -0.61637,-1.45028 -0.61637,-3.06371 0,-2.32044 1.26899,-3.86136 1.28713,-1.54092 3.71634,-2.57425 v -0.10877 q -2.37483,-1.16022 -3.31751,-2.80991 -0.94268,-1.64969 -0.94268,-3.68008 0,-1.48653 0.65263,-2.79178 0.65262,-1.30525 1.95787,-2.33857 1.23274,-0.97894 3.1181,-1.55905 1.90349,-0.59824 4.26019,-0.59824 2.50172,0 4.35083,0.54385 1.86723,0.52573 3.06371,1.39589 1.23274,0.8883 1.88536,2.15729 0.65262,1.25087 0.65262,2.71927 0,1.92162 -1.12396,3.48067 -1.10584,1.54092 -3.40815,2.59237 v 0.10877 q 2.68301,1.08771 3.952,2.8643 1.269,1.75846 1.269,4.22393 z m -7.25139,-12.47239 q 0,-1.37776 -0.90642,-2.19354 -0.90643,-0.83391 -2.46548,-0.83391 -1.48653,0 -2.41108,0.74327 -0.90643,0.74326 -0.90643,1.83097 0,1.08771 0.54386,1.75846 0.56198,0.65263 1.7222,1.21461 0.5076,0.2538 1.19648,0.52573 0.70701,0.27192 1.86723,0.70701 0.70701,-0.92456 1.03333,-1.77659 0.32631,-0.87017 0.32631,-1.97601 z m 0.56198,12.76245 q 0,-1.32338 -0.56198,-2.03039 -0.56198,-0.70701 -2.41109,-1.59531 -0.52572,-0.2538 -1.52279,-0.63449 -0.97894,-0.3807 -1.74033,-0.70701 -0.70701,0.70701 -1.26899,1.75846 -0.54386,1.03332 -0.54386,2.28418 0,1.88536 1.19648,3.00933 1.19648,1.12396 3.15435,1.12396 0.52573,0 1.19648,-0.16315 0.68889,-0.18129 1.21461,-0.54386 0.58011,-0.41695 0.92455,-0.97893 0.36257,-0.56199 0.36257,-1.52279 z"
         id="path4784" />
    </g>
    <g
       aria-label="16"
       transform="matrix(-0.28205323,-1.7516663,0.3733892,-1.2265299,0,0)"
       id="text1712"
       style="font-weight:bold;font-size:37.1581px;line-height:1.25;font-family:Tahoma;-inkscape-font-specification:'Tahoma, Bold';display:inline;fill:#00129e;stroke-width:0.497654">
      <path
         d="m -144.38495,45.820103 h -17.85331 v -4.717337 h 5.69709 V 26.82375 h -5.69709 v -4.408896 q 1.25191,0 2.48568,-0.163292 1.23376,-0.163293 1.97765,-0.526165 0.87089,-0.435446 1.34263,-1.16119 0.48987,-0.743888 0.56245,-1.832504 h 5.91481 v 22.371063 h 5.57009 z"
         id="path4736" />
      <path
         d="m -119.69151,36.621296 q 0,4.263747 -2.70339,7.021574 -2.7034,2.739684 -7.42074,2.739684 -2.35867,0 -4.20931,-0.671313 -1.85065,-0.689457 -3.13885,-2.01394 -1.5422,-1.56035 -2.35867,-4.02788 -0.81646,-2.46753 -0.81646,-5.896671 0,-3.556146 0.76203,-6.313974 0.76204,-2.757828 2.48568,-4.880629 1.65107,-2.01394 4.31818,-3.138844 2.6671,-1.143047 6.31397,-1.143047 1.32448,0 2.64897,0.181436 1.34262,0.163293 1.8325,0.272154 v 5.316076 h -0.48988 q -0.47173,-0.235867 -1.56035,-0.526165 -1.08861,-0.308441 -2.48567,-0.308441 -3.17513,0 -4.89877,1.669212 -1.72365,1.669211 -2.12281,4.789911 1.32449,-0.852749 2.68526,-1.36077 1.37891,-0.508021 3.10255,-0.508021 1.45149,0 2.72154,0.399159 1.2882,0.381016 2.2861,1.124904 1.39706,1.070472 2.21352,2.812258 0.8346,1.741786 0.8346,4.463327 z m -7.87432,4.08231 q 0.52616,-0.653169 0.79832,-1.415201 0.2903,-0.780175 0.2903,-2.340524 0,-1.30634 -0.32659,-2.159089 -0.32658,-0.85275 -0.92532,-1.360771 -0.59874,-0.50802 -1.36077,-0.689456 -0.76203,-0.19958 -1.61478,-0.19958 -0.7076,0 -1.46964,0.181436 -0.74388,0.181436 -1.39705,0.45359 0,0.181436 -0.0181,0.598739 -0.0181,0.417303 -0.0181,1.052329 0,2.322381 0.39916,3.737582 0.4173,1.415201 1.03418,2.140945 0.47174,0.580596 1.07048,0.834606 0.61688,0.254011 1.28819,0.254011 0.54431,0 1.17934,-0.272154 0.63502,-0.272154 1.07047,-0.816463 z"
         id="path4738" />
    </g>
    <g
       aria-label="8"
       transform="matrix(0.53300687,-0.81626024,0.85188406,0.57155157,0,0)"
       id="text1688"
       style="font-weight:bold;font-size:63.2404px;line-height:1.25;font-family:Tahoma;-inkscape-font-specification:'Tahoma, Bold';display:inline;fill:#00129e;stroke-width:0.846969">
      <path
         d="m -33.035847,161.14993 q 0,2.96439 -1.235164,5.52735 -1.204285,2.53209 -3.551097,4.38484 -2.346812,1.85274 -5.743513,2.90263 -3.365822,1.04989 -7.719775,1.04989 -4.631865,0 -8.121204,-1.04989 -3.489338,-1.08077 -5.712633,-2.90263 -2.192416,-1.82187 -3.242306,-4.2922 -1.049889,-2.47033 -1.049889,-5.21857 0,-3.95252 2.161537,-6.57724 2.192416,-2.62473 6.330216,-4.38484 V 150.404 q -4.045163,-1.97626 -5.650876,-4.78626 -1.605713,-2.81 -1.605713,-6.26846 0,-2.53209 1.111647,-4.75538 1.111648,-2.2233 3.334943,-3.98341 2.099779,-1.66747 5.311206,-2.6556 3.242305,-1.01901 7.256588,-1.01901 4.261316,0 7.410985,0.92637 3.180547,0.8955 5.218568,2.3777 2.099778,1.51307 3.211426,3.67461 1.111648,2.13066 1.111648,4.63186 0,3.27319 -1.914505,5.92879 -1.883625,2.62472 -5.80527,4.41571 v 0.18528 q 4.570106,1.85274 6.731643,4.87889 2.161538,2.99528 2.161538,7.19484 z M -45.387488,139.9051 q 0,-2.34681 -1.543955,-3.73637 -1.543955,-1.42044 -4.199558,-1.42044 -2.532086,0 -4.10692,1.26605 -1.543955,1.26604 -1.543955,3.11879 0,1.85274 0.926373,2.99527 0.957252,1.11165 2.933515,2.0689 0.864614,0.43231 2.03802,0.89549 1.204285,0.46319 3.180548,1.20429 1.204285,-1.57484 1.760108,-3.02615 0.555824,-1.4822 0.555824,-3.36583 z m 0.957252,21.73889 q 0,-2.25417 -0.957252,-3.45846 -0.957252,-1.20428 -4.10692,-2.71736 -0.895494,-0.43231 -2.593845,-1.08077 -1.667471,-0.64846 -2.964393,-1.20428 -1.204285,1.20428 -2.161537,2.99527 -0.926373,1.76011 -0.926373,3.89077 0,3.21142 2.03802,5.12593 2.038021,1.9145 5.372964,1.9145 0.895494,0 2.03802,-0.27791 1.173406,-0.30879 2.0689,-0.92637 0.988131,-0.71022 1.574834,-1.66747 0.617582,-0.95726 0.617582,-2.59385 z"
         id="path4694" />
    </g>
    <g
       aria-label="2"
       transform="matrix(0.54092102,0.97543313,-0.77251562,0.45563522,0,0)"
       id="text1682"
       style="font-weight:bold;font-size:63.858px;line-height:1.25;font-family:Tahoma;-inkscape-font-specification:'Tahoma, Bold';display:inline;fill:#00129e;stroke-width:0.855242">
      <path
         d="m 254.4828,-196.92577 h -34.11165 v -7.5769 q 4.33412,-3.42987 7.76399,-6.48558 3.46105,-3.0557 6.08023,-5.7996 3.39869,-3.58578 4.92654,-6.29849 1.52786,-2.71272 1.52786,-5.58134 0,-3.24279 -1.93321,-4.95773 -1.9332,-1.74612 -5.39425,-1.74612 -1.7773,0 -3.36751,0.43653 -1.55904,0.43653 -3.18043,1.12251 -1.59021,0.71715 -2.71272,1.46549 -1.1225,0.74833 -1.68375,1.1225 h -0.90424 v -10.13371 q 1.96438,-0.93542 6.14259,-1.90202 4.17821,-0.99779 8.04461,-0.99779 8.26288,0 12.50345,3.67932 4.27175,3.67932 4.27175,10.35198 0,4.11585 -1.9332,8.0758 -1.93321,3.92876 -6.42322,8.44996 -2.80626,2.77508 -5.45662,4.95772 -2.65035,2.15147 -3.83522,3.05571 h 19.675 z"
         id="path4715" />
    </g>
    <g
       aria-label="6."
       transform="matrix(-0.63451564,-1.1211297,1.1433223,0.4441381,0,0)"
       id="text1724"
       style="font-weight:bold;font-size:46.9989px;line-height:1.25;font-family:Tahoma;-inkscape-font-specification:'Tahoma, Bold';display:inline;fill:#00129e;stroke-width:0.629449">
      <path
         d="m -292.57104,-76.377002 q 0,5.392941 -3.41935,8.88114 -3.41935,3.465251 -9.38601,3.465251 -2.98333,0 -5.3241,-0.849101 -2.34076,-0.87205 -3.97012,-2.547303 -1.95064,-1.973587 -2.98333,-5.094608 -1.03269,-3.121021 -1.03269,-7.458322 0,-4.497941 0.96385,-7.986141 0.96384,-3.4882 3.14397,-6.173196 2.08833,-2.547303 5.46178,-3.970122 3.37346,-1.445767 7.98614,-1.445767 1.67526,0 3.35051,0.229487 1.69821,0.206538 2.31782,0.34423 v 6.723964 h -0.61961 q -0.59667,-0.298333 -1.97359,-0.665512 -1.37692,-0.390127 -3.14397,-0.390127 -4.01602,0 -6.19615,2.111279 -2.18012,2.111278 -2.68499,6.058452 1.67525,-1.078588 3.3964,-1.721151 1.7441,-0.642564 3.92423,-0.642564 1.83589,0 3.4423,0.504872 1.62936,0.481922 2.89153,1.422818 1.76705,1.353972 2.79974,3.557046 1.05564,2.203073 1.05564,5.645375 z m -9.95972,5.163454 q 0.66551,-0.826153 1.00974,-1.789997 0.36718,-0.986794 0.36718,-2.96038 0,-1.652305 -0.41308,-2.730893 -0.41308,-1.078589 -1.17038,-1.721152 -0.75731,-0.642563 -1.72115,-0.87205 -0.96385,-0.252435 -2.04244,-0.252435 -0.895,0 -1.85884,0.229487 -0.9409,0.229487 -1.76705,0.573717 0,0.229487 -0.0229,0.757306 -0.023,0.52782 -0.023,1.331024 0,2.937431 0.50488,4.727428 0.52781,1.789998 1.30807,2.707945 0.59667,0.734358 1.35397,1.055639 0.78026,0.321282 1.62936,0.321282 0.68846,0 1.49166,-0.34423 0.80321,-0.344231 1.35398,-1.032691 z"
         id="path4805" />
      <path
         d="m -279.60503,-64.74202 h -8.12384 v -9.018832 h 8.12384 z"
         id="path4807" />
    </g>
    <g
       aria-label=" 4"
       transform="matrix(-0.81099466,0.88899886,-1.3978937,0.2992941,0,0)"
       id="text1730"
       style="font-weight:bold;font-size:41.3921px;line-height:1.25;font-family:Tahoma;-inkscape-font-specification:'Tahoma, Bold';display:inline;fill:#00129e;stroke-width:0.554355">
      <path
         d="m 524.99098,-504.88742 h -4.06241 v 7.09406 h -7.29616 v -7.09406 h -13.2382 v -5.61865 l 12.99567,-17.4623 h 7.53869 v 17.66441 h 4.06241 z m -11.35857,-5.41654 v -10.24697 l -7.61954,10.24697 z"
         id="path4851" />
    </g>
  </g>
</svg>
