<?xml version="1.0" encoding="UTF-8" standalone="no"?>
<svg
   width="400.0px"
   height="400.0px"
   viewBox="0 0 400.0 400.0"
   version="1.1"
   id="SVGRoot"
   sodipodi:docname="d20_nerd_dice_seafoam.svg"
   inkscape:version="1.1 (c4e8f9e, 2021-05-24)"
   xmlns:inkscape="http://www.inkscape.org/namespaces/inkscape"
   xmlns:sodipodi="http://sodipodi.sourceforge.net/DTD/sodipodi-0.dtd"
   xmlns="http://www.w3.org/2000/svg"
   xmlns:svg="http://www.w3.org/2000/svg"
   xmlns:rdf="http://www.w3.org/1999/02/22-rdf-syntax-ns#"
   xmlns:cc="http://creativecommons.org/ns#"
   xmlns:dc="http://purl.org/dc/elements/1.1/">
  <defs
     id="defs858" />
  <sodipodi:namedview
     id="base"
     pagecolor="#ffffff"
     bordercolor="#666666"
     borderopacity="1.0"
     inkscape:pageopacity="0.0"
     inkscape:pageshadow="2"
     inkscape:zoom="1"
     inkscape:cx="158.5"
     inkscape:cy="202.5"
     inkscape:document-units="px"
     inkscape:current-layer="layer4"
     inkscape:document-rotation="0"
     showgrid="true"
     inkscape:window-width="1252"
     inkscape:window-height="943"
     inkscape:window-x="149"
     inkscape:window-y="45"
     inkscape:window-maximized="0"
     inkscape:pagecheckerboard="0">
    <inkscape:grid
       type="xygrid"
       id="grid1428" />
  </sodipodi:namedview>
  <metadata
     id="metadata861">
    <rdf:RDF>
      <cc:Work
         rdf:about="">
        <dc:format>image/svg+xml</dc:format>
        <dc:type
           rdf:resource="http://purl.org/dc/dcmitype/StillImage" />
        <dc:title />
      </cc:Work>
    </rdf:RDF>
  </metadata>
  <g
     inkscape:groupmode="layer"
     id="layer3"
     inkscape:label="Triangles"
     style="display:inline">
    <path
       sodipodi:type="star"
       style="opacity:0.999;fill:#add9be;fill-opacity:1;stroke:#add9be;stroke-width:1.00157;stroke-opacity:1"
       id="path1622"
       sodipodi:sides="3"
       sodipodi:cx="200"
       sodipodi:cy="194.99957"
       sodipodi:r1="130"
       sodipodi:r2="45"
       sodipodi:arg1="-1.5707963"
       sodipodi:arg2="-0.52359881"
       inkscape:flatsided="true"
       inkscape:rounded="0"
       inkscape:randomized="0"
       d="M 200,64.999573 312.5833,259.99958 87.416696,259.99957 Z"
       inkscape:transform-center-y="-22.5" />
    <g
       id="g1657"
       transform="translate(-0.49479)"
       style="fill:#add9be;fill-opacity:1;stroke:#add9be;stroke-opacity:1">
      <path
         style="display:inline;fill:#add9be;fill-opacity:1;stroke:#add9be;stroke-width:1.01926px;stroke-linecap:butt;stroke-linejoin:miter;stroke-opacity:1"
         d="M 197.98995,61.075575 V 5.0162641 L 40.00463,91.653381 Z"
         id="path1632" />
      <path
         style="display:inline;fill:#add9be;fill-opacity:1;stroke:#add9be;stroke-width:1.01926px;stroke-linecap:butt;stroke-linejoin:miter;stroke-opacity:1"
         d="M 202.99963,61.076016 V 5.016705 l 157.98532,86.637117 z"
         id="path1634" />
    </g>
    <g
       id="g1661"
       transform="translate(-0.187635)"
       style="fill:#add9be;fill-opacity:1;stroke:#add9be;stroke-opacity:1">
      <path
         style="display:inline;fill:#add9be;fill-opacity:1;stroke:#add9be;stroke-width:1px;stroke-linecap:butt;stroke-linejoin:miter;stroke-opacity:1"
         d="M 195,65.000356 85,255.00036 45,95.000356 Z"
         id="path1624" />
      <path
         style="display:inline;fill:#add9be;fill-opacity:1;stroke:#add9be;stroke-width:1px;stroke-linecap:butt;stroke-linejoin:miter;stroke-opacity:1"
         d="m 205.37527,65.000356 110,190.000004 40,-160.000004 z"
         id="path1626" />
    </g>
    <g
       id="g1665"
       style="fill:#add9be;fill-opacity:1;stroke:#add9be;stroke-opacity:1">
      <path
         style="display:inline;fill:#add9be;fill-opacity:1;stroke:#add9be;stroke-width:1px;stroke-linecap:butt;stroke-linejoin:miter;stroke-opacity:1"
         d="m 40,94.9998 40,165 -45,10 z"
         id="path1628" />
      <path
         style="display:inline;fill:#add9be;fill-opacity:1;stroke:#add9be;stroke-width:1px;stroke-linecap:butt;stroke-linejoin:miter;stroke-opacity:1"
         d="m 360,94.9998 -40,165 45,10 z"
         id="path1630" />
    </g>
    <path
       sodipodi:type="star"
       style="display:inline;opacity:0.999;fill:#add9be;fill-opacity:1;stroke:#add9be;stroke-width:1.00157;stroke-opacity:1"
       id="path1636"
       sodipodi:sides="3"
       sodipodi:cx="200"
       sodipodi:cy="326.99979"
       sodipodi:r1="125"
       sodipodi:r2="40.311291"
       sodipodi:arg1="1.5707963"
       sodipodi:arg2="2.6179939"
       inkscape:flatsided="true"
       inkscape:rounded="0"
       inkscape:randomized="0"
       d="m 200,451.99979 -108.253177,-187.5 216.506347,-1e-5 z"
       inkscape:transform-center-x="-0.17979727"
       inkscape:transform-center-y="12.565869"
       transform="matrix(1.0016823,0,0,0.62829348,-0.33645661,98.214508)" />
    <g
       id="g1669"
       transform="translate(-0.05529)"
       style="fill:#add9be;fill-opacity:1;stroke:#add9be;stroke-opacity:1">
      <path
         style="display:inline;fill:#add9be;fill-opacity:1;stroke:#add9be;stroke-width:1px;stroke-linecap:butt;stroke-linejoin:miter;stroke-opacity:1"
         d="M 85,265 195,385 35,275 Z"
         id="path1642" />
      <path
         style="display:inline;fill:#add9be;fill-opacity:1;stroke:#add9be;stroke-width:1px;stroke-linecap:butt;stroke-linejoin:miter;stroke-opacity:1"
         d="m 315.11058,264.99954 -110,120 160,-110 z"
         id="path1644" />
    </g>
  </g>
  <g
     inkscape:groupmode="layer"
     id="layer4"
     inkscape:label="Text"
     style="display:inline">
    <g
       aria-label="20"
       id="text1674"
       style="font-weight:bold;font-size:74.6667px;line-height:1.25;font-family:Tahoma;-inkscape-font-specification:'Tahoma, Bold';fill:#00129e;stroke:#add9be">
      <path
         d="m 196.51823,227.14325 h -39.88544 v -8.85938 q 5.06771,-4.01042 9.07813,-7.58334 4.04688,-3.57292 7.10938,-6.78125 3.97396,-4.19271 5.76042,-7.36459 1.78646,-3.17187 1.78646,-6.52604 0,-3.79167 -2.26042,-5.79688 -2.26042,-2.04167 -6.3073,-2.04167 -2.07812,0 -3.9375,0.51042 -1.82292,0.51042 -3.71875,1.3125 -1.85938,0.83854 -3.17188,1.71354 -1.3125,0.875 -1.96875,1.3125 h -1.05729 V 175.1901 q 2.29688,-1.09375 7.1823,-2.22396 4.88541,-1.16667 9.40625,-1.16667 9.66146,0 14.6198,4.30209 4.99479,4.30208 4.99479,12.10417 0,4.8125 -2.26042,9.44271 -2.26041,4.59376 -7.51042,9.88022 -3.28125,3.24479 -6.38021,5.79687 -3.09896,2.51563 -4.48437,3.57292 h 23.00522 z"
         id="path4706" />
      <path
         d="m 243.36721,199.98178 q 0,7.03646 -1.13021,12.32292 -1.13021,5.28646 -3.60938,8.82292 -2.47917,3.53646 -6.45313,5.35938 -3.97396,1.78646 -9.73438,1.78646 -5.72396,0 -9.69792,-1.78646 -3.97396,-1.82292 -6.48958,-5.4323 -2.47917,-3.57291 -3.60938,-8.78646 -1.13021,-5.25 -1.13021,-12.25 0,-7.21876 1.09375,-12.32293 1.13021,-5.10417 3.71875,-8.78646 2.55209,-3.60938 6.56251,-5.35938 4.01041,-1.78646 9.55208,-1.78646 5.8698,0 9.77084,1.85938 3.9375,1.82292 6.45313,5.46875 2.47917,3.57292 3.57292,8.82292 1.13021,5.25001 1.13021,12.06772 z m -13.67188,0 q 0,-10.06251 -1.67709,-14.10938 -1.64062,-4.08334 -5.57813,-4.08334 -3.90104,0 -5.57812,4.08334 -1.67709,4.04687 -1.67709,14.18229 0,9.91668 1.67709,14.07293 1.67708,4.11979 5.57812,4.11979 3.90105,0 5.57813,-4.11979 1.67709,-4.15625 1.67709,-14.14584 z"
         id="path4708" />
    </g>
    <text
       xml:space="preserve"
       style="font-size:40px;line-height:1.25;font-family:Avenir;-inkscape-font-specification:Avenir"
       x="70"
       y="110"
       id="text1678"><tspan
         sodipodi:role="line"
         id="tspan1676"
         x="70"
         y="110" /></text>
    <g
       aria-label="18"
       transform="matrix(1.746614,-0.26382617,-1.008408,0.72485647,0,0)"
       id="text1698"
       style="font-weight:bold;font-size:44.6421px;line-height:1.25;font-family:Tahoma;-inkscape-font-specification:'Tahoma, Bold';fill:#00129e;stroke-width:0.597884">
      <path
         d="m 155.38542,152.80638 h -21.44913 v -5.66745 h 6.84454 v -17.15495 h -6.84454 v -5.29689 q 1.50406,0 2.98631,-0.19618 1.48226,-0.19618 2.37597,-0.63214 1.0463,-0.52315 1.61305,-1.39507 0.58854,-0.89371 0.67573,-2.20158 h 7.10612 v 26.87681 h 6.69195 z"
         id="path4595" />
      <path
         d="m 185.16136,143.76025 q 0,2.0926 -0.87192,3.90183 -0.85012,1.78742 -2.50676,3.0953 -1.65664,1.30787 -4.05441,2.049 -2.37597,0.74113 -5.44947,0.74113 -3.26969,0 -5.73285,-0.74113 -2.46316,-0.76293 -4.03261,-2.049 -1.54765,-1.28608 -2.28878,-3.02991 -0.74113,-1.74383 -0.74113,-3.68384 0,-2.79014 1.52585,-4.64296 1.54765,-1.85282 4.46857,-3.0953 v -0.13079 q -2.85552,-1.39506 -3.98901,-3.37867 -1.13349,-1.98361 -1.13349,-4.42498 0,-1.78742 0.78472,-3.35687 0.78473,-1.56945 2.35417,-2.81193 1.48226,-1.17709 3.74924,-1.87462 2.28878,-0.71933 5.12251,-0.71933 3.00811,0 5.2315,0.65394 2.24518,0.63213 3.68384,1.67843 1.48226,1.0681 2.26698,2.59395 0.78473,1.50406 0.78473,3.26969 0,2.31058 -1.35147,4.1852 -1.32967,1.85282 -4.09801,3.1171 v 0.13078 q 3.22609,1.30788 4.75194,3.44407 1.52586,2.1144 1.52586,5.07891 z M 176.4422,128.7633 q 0,-1.65664 -1.0899,-2.63755 -1.08989,-1.0027 -2.96451,-1.0027 -1.78743,0 -2.89912,0.89371 -1.0899,0.89371 -1.0899,2.20159 0,1.30787 0.65394,2.1144 0.67573,0.78472 2.0708,1.46045 0.61034,0.30518 1.43866,0.63214 0.85012,0.32697 2.24518,0.85012 0.85012,-1.11169 1.24249,-2.13619 0.39236,-1.0463 0.39236,-2.37597 z m 0.67573,15.34572 q 0,-1.59125 -0.67573,-2.44137 -0.67574,-0.85011 -2.89912,-1.91821 -0.63214,-0.30517 -1.83103,-0.76293 -1.17708,-0.45775 -2.0926,-0.85012 -0.85011,0.85012 -1.52585,2.1144 -0.65394,1.24248 -0.65394,2.74654 0,2.26698 1.43867,3.61845 1.43866,1.35147 3.79283,1.35147 0.63214,0 1.43866,-0.19618 0.82832,-0.21798 1.46046,-0.65394 0.69753,-0.50135 1.11169,-1.17709 0.43596,-0.67573 0.43596,-1.83102 z"
         id="path4597" />
    </g>
    <g
       aria-label="8"
       transform="scale(-1)"
       id="text1706"
       style="font-weight:bold;font-size:70.9334px;line-height:1.25;font-family:Tahoma;-inkscape-font-specification:'Tahoma, Bold';fill:#00129e;stroke-width:0.95">
      <path
         d="m -179.59973,-295.83849 q 0,3.325 -1.38541,6.19974 -1.35079,2.84011 -3.98308,4.91823 -2.6323,2.07813 -6.4422,3.25574 -3.77526,1.1776 -8.65886,1.1776 -5.19532,0 -9.10912,-1.1776 -3.91381,-1.21224 -6.40756,-3.25574 -2.45912,-2.04349 -3.63672,-4.81432 -1.17761,-2.77084 -1.17761,-5.85339 0,-4.43334 2.42448,-7.37735 2.45912,-2.94402 7.10027,-4.91824 v -0.20781 q -4.53724,-2.21667 -6.33829,-5.3685 -1.80104,-3.15182 -1.80104,-7.03099 0,-2.84011 1.24688,-5.33386 1.24687,-2.49375 3.74063,-4.46798 2.35521,-1.87031 5.95729,-2.97864 3.63672,-1.14297 8.13933,-1.14297 4.7797,0 8.31251,1.03906 3.56745,1.00443 5.85339,2.66693 2.35521,1.69714 3.60209,4.12162 1.24688,2.38984 1.24688,5.19532 0,3.67135 -2.1474,6.65 -2.11276,2.94402 -6.51147,4.95287 v 0.20781 q 5.12605,2.07813 7.55053,5.47241 2.42448,3.35963 2.42448,8.07006 z m -13.85418,-23.82919 q 0,-2.6323 -1.73177,-4.19089 -1.73177,-1.59324 -4.71042,-1.59324 -2.84011,0 -4.60652,1.42006 -1.73177,1.42005 -1.73177,3.49818 0,2.07813 1.03907,3.35964 1.07369,1.24687 3.29036,2.32057 0.9698,0.4849 2.28594,1.00443 1.35079,0.51953 3.56745,1.35078 1.35079,-1.7664 1.97422,-3.39427 0.62344,-1.6625 0.62344,-3.77526 z m 1.0737,24.38335 q 0,-2.52839 -1.0737,-3.87917 -1.0737,-1.35078 -4.60651,-3.04792 -1.00443,-0.48489 -2.90938,-1.21224 -1.87031,-0.72734 -3.325,-1.35078 -1.35079,1.35078 -2.42448,3.35964 -1.03907,1.97422 -1.03907,4.36406 0,3.60209 2.28594,5.74949 2.28594,2.1474 6.02657,2.1474 1.00443,0 2.28594,-0.31172 1.31615,-0.34636 2.32057,-1.03907 1.10834,-0.79661 1.76641,-1.87031 0.69271,-1.0737 0.69271,-2.90938 z"
         id="path4775" />
    </g>
    <g
       aria-label="12"
       transform="matrix(-0.28205323,-1.7516663,0.3733892,-1.2265299,0,0)"
       id="text1712"
       style="font-weight:bold;font-size:37.1581px;line-height:1.25;font-family:Tahoma;-inkscape-font-specification:'Tahoma, Bold';display:inline;fill:#00129e;stroke-width:0.497654">
      <path
         d="m -144.38495,45.820103 h -17.85331 v -4.717337 h 5.69709 V 26.82375 h -5.69709 v -4.408896 q 1.25191,0 2.48568,-0.163292 1.23376,-0.163293 1.97765,-0.526165 0.87089,-0.435446 1.34263,-1.16119 0.48987,-0.743888 0.56245,-1.832504 h 5.91481 v 22.371063 h 5.57009 z"
         id="path4683" />
      <path
         d="m -119.52821,45.820103 h -19.84911 v -4.408896 q 2.52196,-1.995796 4.51776,-3.77387 2.01394,-1.778073 3.538,-3.37471 1.97766,-2.086514 2.86669,-3.665008 0.88904,-1.578493 0.88904,-3.247705 0,-1.886935 -1.1249,-2.884833 -1.12491,-1.016042 -3.13885,-1.016042 -1.03418,0 -1.95951,0.254011 -0.90718,0.25401 -1.85064,0.65317 -0.92533,0.417303 -1.5785,0.852749 -0.65317,0.435447 -0.97975,0.65317 h -0.52617 v -5.896671 q 1.14305,-0.544309 3.57429,-1.10676 2.43125,-0.580596 4.68105,-0.580596 4.80806,0 7.27559,2.140946 2.48567,2.140945 2.48567,6.023676 0,2.394956 -1.1249,4.699193 -1.12491,2.286094 -3.73758,4.916917 -1.63293,1.614781 -3.17513,2.884833 -1.54221,1.251909 -2.23167,1.778073 h 11.44862 z"
         id="path4685" />
    </g>
    <g
       aria-label="2"
       transform="matrix(0.53300687,-0.81626024,0.85188406,0.57155157,0,0)"
       id="text1688"
       style="font-weight:bold;font-size:63.2404px;line-height:1.25;font-family:Tahoma;-inkscape-font-specification:'Tahoma, Bold';display:inline;fill:#00129e;stroke-width:0.846969">
      <path
         d="m -32.912331,173.96475 h -33.781736 v -7.50362 q 4.292195,-3.3967 7.688896,-6.42285 3.42758,-3.02615 6.021424,-5.74352 3.365822,-3.55109 4.878898,-6.23757 1.513076,-2.68649 1.513076,-5.52736 0,-3.21143 -1.914504,-4.90978 -1.914504,-1.72923 -5.342084,-1.72923 -1.760109,0 -3.334943,0.43231 -1.543955,0.43231 -3.149669,1.11165 -1.574834,0.71022 -2.686481,1.45131 -1.111648,0.7411 -1.667472,1.11165 h -0.895494 v -10.03571 q 1.945384,-0.92637 6.083183,-1.88362 4.1378,-0.98813 7.966808,-0.98813 8.182962,0 12.38252,3.64373 4.230436,3.64373 4.230436,10.25186 0,4.07604 -1.914504,7.99769 -1.914504,3.89077 -6.361095,8.36824 -2.779119,2.74824 -5.403842,4.90977 -2.624724,2.13066 -3.79813,3.02615 h 19.484713 z"
         id="path4639" />
    </g>
    <g
       aria-label="6."
       transform="matrix(-0.12833578,1.7580336,-0.47895565,-1.2309884,0,0)"
       id="text1718"
       style="font-weight:bold;font-size:37.1271px;line-height:1.25;font-family:Tahoma;-inkscape-font-specification:'Tahoma, Bold';display:inline;fill:#00129e;stroke-width:0.497237">
      <path
         d="m -318.18965,-636.55692 q 0,4.26019 -2.70114,7.01572 -2.70114,2.7374 -7.41454,2.7374 -2.35671,0 -4.20581,-0.67075 -1.8491,-0.68889 -3.13622,-2.01226 -1.54092,-1.55905 -2.3567,-4.02452 -0.81579,-2.46548 -0.81579,-5.89176 0,-3.55318 0.7614,-6.3087 0.7614,-2.75553 2.4836,-4.87656 1.64969,-2.01226 4.31458,-3.13623 2.66488,-1.14209 6.3087,-1.14209 1.32338,0 2.64676,0.18129 1.3415,0.16315 1.83097,0.27192 v 5.31164 h -0.48947 q -0.47134,-0.23567 -1.55904,-0.52572 -1.08771,-0.30819 -2.4836,-0.30819 -3.17249,0 -4.89469,1.66782 -1.7222,1.66782 -2.12103,4.78592 1.32338,-0.85204 2.68301,-1.35964 1.37777,-0.50759 3.09997,-0.50759 1.45028,0 2.71927,0.39882 1.28712,0.3807 2.28419,1.12397 1.39589,1.06958 2.21167,2.80991 0.83391,1.74033 0.83391,4.4596 z m -7.86775,4.07891 q 0.52572,-0.65263 0.79765,-1.41402 0.29005,-0.77953 0.29005,-2.33857 0,-1.30525 -0.32631,-2.15729 -0.32631,-0.85204 -0.92455,-1.35964 -0.59824,-0.50759 -1.35964,-0.68888 -0.76139,-0.19941 -1.61343,-0.19941 -0.70701,0 -1.46841,0.18128 -0.74326,0.18129 -1.39589,0.45321 0,0.18129 -0.0181,0.59824 -0.0181,0.41696 -0.0181,1.05145 0,2.32045 0.39882,3.73447 0.41696,1.41402 1.03332,2.13916 0.47134,0.58011 1.06958,0.83391 0.61637,0.2538 1.28713,0.2538 0.54385,0 1.17835,-0.27193 0.63449,-0.27193 1.06958,-0.81578 z"
         id="path4729" />
      <path
         d="m -307.94706,-627.36578 h -6.41748 v -7.12449 h 6.41748 z"
         id="path4731" />
    </g>
    <g
       aria-label="14"
       transform="matrix(0.54092102,0.97543313,-0.77251562,0.45563522,0,0)"
       id="text1682"
       style="font-weight:bold;font-size:63.858px;line-height:1.25;font-family:Tahoma;-inkscape-font-specification:'Tahoma, Bold';display:inline;fill:#00129e;stroke-width:0.855242">
      <path
         d="m 232.45756,-191.49028 h -30.68177 v -8.10697 h 9.79073 v -24.53919 h -9.79073 v -7.5769 q 2.15146,0 4.27175,-0.28062 2.12028,-0.28063 3.39869,-0.90424 1.49667,-0.74834 2.30737,-1.99557 0.84188,-1.2784 0.9666,-3.14924 h 10.1649 v 38.44576 h 9.57246 z"
         id="path4660" />
      <path
         d="m 275.70514,-202.30997 h -6.26731 v 10.94441 h -11.25622 v -10.94441 h -20.42334 v -8.66823 l 20.04917,-26.94009 h 11.63039 v 27.2519 h 6.26731 z m -17.52353,-8.35642 v -15.8086 l -11.75511,15.8086 z"
         id="path4662" />
    </g>
    <g
       aria-label="4"
       transform="matrix(1.7424167,0.2644617,1.0059847,0.72660256,0,0)"
       id="text1694"
       style="font-weight:bold;font-size:45.0939px;line-height:1.25;font-family:Tahoma;-inkscape-font-specification:'Tahoma, Bold';display:inline;fill:#00129e;stroke-width:0.603937"
       inkscape:transform-center-x="4.0318962"
       inkscape:transform-center-y="9.6899815e-06">
      <path
         d="m 145.81638,35.747945 h -4.42572 v 7.728496 h -7.94868 v -7.728496 h -14.42213 v -6.121144 l 14.1579,-19.023989 h 8.21291 v 19.244174 h 4.42572 z m -12.3744,-5.900959 V 18.683604 L 125.141,29.846986 Z"
         id="path4618" />
    </g>
    <g
       aria-label="16"
       transform="matrix(-0.81062496,0.88940419,-1.3972566,0.29943056,0,0)"
       id="text1730"
       style="font-weight:bold;font-size:41.3733px;line-height:1.25;font-family:Tahoma;-inkscape-font-specification:'Tahoma, Bold';display:inline;fill:#00129e;stroke-width:0.554102">
      <path
         d="m 510.58304,-496.54712 h -19.87858 v -5.25247 h 6.34337 v -15.89882 h -6.34337 v -4.90904 q 1.39392,0 2.76765,-0.18182 1.37372,-0.18181 2.20199,-0.58585 0.96969,-0.48484 1.49494,-1.29291 0.54545,-0.82828 0.62625,-2.04039 h 6.58579 v 24.90883 h 6.20196 z"
         id="path4796" />
      <path
         d="m 538.07769,-506.78943 q 0,4.74742 -3.01007,7.81809 -3.01006,3.05048 -8.26253,3.05048 -2.62624,0 -4.68682,-0.74747 -2.06059,-0.76767 -3.49492,-2.2424 -1.71715,-1.73736 -2.62623,-4.4848 -0.90908,-2.74745 -0.90908,-6.56559 0,-3.95955 0.84847,-7.03023 0.84848,-3.07067 2.76765,-5.43428 1.83837,-2.2424 4.80803,-3.49492 2.96967,-1.27271 7.03023,-1.27271 1.47473,0 2.94946,0.20202 1.49494,0.18182 2.04039,0.30303 v 5.91913 h -0.54545 q -0.52525,-0.26263 -1.73736,-0.58586 -1.21211,-0.34343 -2.76765,-0.34343 -3.53531,0 -5.45448,1.85857 -1.91917,1.85856 -2.36361,5.33328 1.47473,-0.94949 2.98986,-1.51514 1.53534,-0.56565 3.45451,-0.56565 1.61615,0 3.03027,0.44444 1.43433,0.42424 2.54543,1.25251 1.55554,1.19191 2.46462,3.13128 0.92928,1.93937 0.92928,4.96965 z m -8.76758,4.5454 q 0.58585,-0.72726 0.88888,-1.57574 0.32323,-0.86868 0.32323,-2.60603 0,-1.45453 -0.36363,-2.40402 -0.36364,-0.94948 -1.0303,-1.51513 -0.66666,-0.56565 -1.51513,-0.76767 -0.84848,-0.22222 -1.79796,-0.22222 -0.78787,0 -1.63635,0.20202 -0.82827,0.20202 -1.55554,0.50504 0,0.20202 -0.0202,0.66666 -0.0202,0.46464 -0.0202,1.17171 0,2.58583 0.44444,4.16157 0.46464,1.57574 1.1515,2.38381 0.52525,0.64646 1.19191,0.92928 0.68686,0.28283 1.43433,0.28283 0.60605,0 1.31311,-0.30303 0.70707,-0.30302 1.19191,-0.90908 z"
         id="path4798" />
    </g>
    <g
       aria-label="10"
       transform="matrix(-0.86157125,-1.0128905,1.328587,0.40125895,0,0)"
       id="text1724"
       style="font-weight:bold;font-size:39.4914px;line-height:1.25;font-family:Tahoma;-inkscape-font-specification:'Tahoma, Bold';display:inline;fill:#00129e;stroke-width:0.528903">
      <path
         d="m -361.1785,-147.65587 h -18.97439 v -5.01356 h 6.05484 v -15.17565 h -6.05484 v -4.68574 q 1.33052,0 2.64176,-0.17355 1.31124,-0.17355 2.10184,-0.5592 0.92558,-0.46279 1.42693,-1.23411 0.52064,-0.7906 0.59777,-1.94757 h 6.28623 v 23.77582 h 5.91986 z"
         id="path4752" />
      <path
         d="m -335.12729,-162.02164 q 0,3.7216 -0.59777,6.51763 -0.59777,2.79602 -1.90901,4.66646 -1.31124,1.87044 -3.41307,2.83459 -2.10184,0.94486 -5.14854,0.94486 -3.02742,0 -5.12926,-0.94486 -2.10183,-0.96415 -3.43235,-2.87315 -1.31124,-1.88973 -1.90901,-4.64719 -0.59777,-2.77674 -0.59777,-6.47905 0,-3.81802 0.57849,-6.51763 0.59777,-2.69961 1.96685,-4.64718 1.34981,-1.90901 3.47093,-2.83459 2.12112,-0.94486 5.05212,-0.94486 3.10455,0 5.16782,0.98343 2.08255,0.96414 3.41307,2.89243 1.31124,1.88973 1.88973,4.66647 0.59777,2.77674 0.59777,6.38264 z m -7.23109,0 q 0,-5.32208 -0.88702,-7.46248 -0.86773,-2.15969 -2.95028,-2.15969 -2.06327,0 -2.95029,2.15969 -0.88701,2.1404 -0.88701,7.50105 0,5.24495 0.88701,7.4432 0.88702,2.17897 2.95029,2.17897 2.06327,0 2.95028,-2.17897 0.88702,-2.19825 0.88702,-7.48177 z"
         id="path4754" />
    </g>
  </g>
</svg>
